<?xml version="1.0" encoding="UTF-8"?>
<!DOCTYPE svg PUBLIC "-//W3C//DTD SVG 1.1//EN" "http://www.w3.org/Graphics/SVG/1.1/DTD/svg11.dtd">
<!-- Creator: CorelDRAW 2017 -->
<svg xmlns="http://www.w3.org/2000/svg" xml:space="preserve" width="400mm" height="400mm" version="1.1" style="shape-rendering:geometricPrecision; text-rendering:geometricPrecision; image-rendering:optimizeQuality; fill-rule:evenodd; clip-rule:evenodd"
viewBox="0 0 40000 40000"
 xmlns:xlink="http://www.w3.org/1999/xlink"
 enable-background="new 0 0 1005 890">
 <defs>
  <style type="text/css">
   <![CDATA[
    .fil0 {fill:#2F667E}
    .fil1 {fill:#30677E}
    .fil2 {fill:#32677E}
    .fil3 {fill:#33687E}
    .fil4 {fill:#34687E}
    .fil5 {fill:#36697F}
    .fil6 {fill:#38697F}
    .fil7 {fill:#396578}
    .fil8 {fill:#3B6A7E}
    .fil9 {fill:#406B7E}
    .fil10 {fill:#4B7283}
    .fil11 {fill:#4E7687}
   ]]>
  </style>
 </defs>
 <g id="Слой_x0020_1">
  <metadata id="CorelCorpID_0Corel-Layer"/>
  <path class="fil0" d="M13450 16700c7,17 0,35 -42,49 -62,17 -97,31 -132,45 28,21 56,42 83,62 -10,28 -21,56 -62,94 -73,59 -111,111 -153,180 -17,76 -31,139 -45,198 0,0 -3,24 -31,35 -201,135 -295,298 -284,517 0,0 0,0 -21,0 -212,49 -184,194 -173,333 -3,17 -10,35 -42,66 -229,330 -441,638 -631,964 -76,132 -108,291 -160,437 0,0 -3,24 -31,35 -69,35 -132,45 -153,83 -295,510 -583,1023 -874,1537 -239,423 -486,840 -715,1266 -173,326 -319,663 -475,996 0,0 -3,14 -28,21 -76,111 -128,219 -184,323 -3,21 -10,42 -42,73 -83,49 -160,73 -187,121 -198,340 -385,683 -569,1027 -24,45 -14,114 -17,170 0,0 0,14 -24,21 -62,24 -114,31 -132,59 -187,298 -375,600 -555,905 -212,361 -434,718 -621,1093 -108,212 -357,354 -305,638 -3,17 -10,35 -42,66 -80,49 -146,76 -177,128 -160,243 -319,489 -461,739 -66,118 -97,257 -146,385 0,0 -3,21 -31,31 -226,59 -208,229 -222,378 0,0 -3,-7 -21,-3 -104,101 -212,184 -281,295 -434,676 -857,1356 -1284,2036 -298,475 -604,951 -895,1429 -62,104 -90,229 -135,347 0,0 -7,-7 -21,-7 -87,80 -170,149 -232,232 -337,479 -670,961 -1006,1443 -3,3 -31,-7 -52,-14 21,-156 38,-309 59,-465 3,-17 3,-35 35,-62 73,-56 139,-87 167,-142 194,-382 382,-770 572,-1155 69,-139 156,-274 208,-420 73,-201 125,-406 184,-611 0,0 3,-24 28,-42 118,-163 226,-305 302,-461 66,-135 101,-288 146,-434 0,0 0,-17 24,-24 139,-173 253,-340 361,-513 14,-21 -31,-80 -49,-118 0,0 3,-21 28,-38 160,-236 295,-458 423,-680 153,-267 298,-534 441,-805 73,-139 142,-281 201,-427 76,-191 139,-389 208,-583 3,-17 10,-31 42,-59 59,-31 111,-45 128,-76 180,-333 357,-670 527,-1006 14,-24 -28,-80 -45,-118 0,0 3,-24 31,-38 142,-274 448,-437 406,-777 0,0 3,7 21,3 302,-479 586,-954 867,-1433 14,-21 -28,-76 -45,-114 0,0 3,-24 28,-38 118,-132 229,-239 302,-371 260,-448 520,-895 760,-1356 114,-219 184,-461 271,-690 10,-28 17,-56 59,-94 260,-385 493,-756 718,-1134 35,-59 28,-146 42,-219 0,0 0,-21 28,-28 73,-49 135,-80 167,-132 170,-291 340,-583 496,-881 62,-121 87,-264 132,-395 0,0 0,-17 24,-24 94,-73 170,-132 226,-208 49,-66 62,-153 104,-226 132,-225 267,-444 402,-670 198,-333 406,-659 586,-999 121,-236 201,-493 302,-739 10,-28 17,-52 59,-83 326,-191 371,-503 448,-801 0,0 0,-14 24,-21 149,-149 326,-260 281,-493 3,-17 10,-35 35,-62 42,-10 59,-14 80,-7 7,10 10,10 17,14 -7,-7 -10,-14 -17,-42 -3,-45 -3,-69 -7,-97 0,0 3,-21 28,-31 38,-49 52,-83 66,-121 0,0 7,3 21,3 21,-31 28,-66 35,-97 17,-42 35,-83 80,-135 45,-31 66,-45 104,-66 45,-31 83,-56 101,-90 298,-507 600,-1010 888,-1519 90,-163 142,-343 212,-517 0,0 -3,-14 21,-21 319,-160 416,-458 545,-732 90,-191 167,-389 253,-586 0,0 -3,-10 21,-17 201,-222 395,-427 552,-656 198,-291 364,-604 552,-902 80,-125 187,-232 264,-357 180,-291 357,-586 517,-888 135,-253 243,-524 361,-784 0,0 0,0 17,0 278,-212 520,-434 500,-812 0,0 0,-3 17,-7 260,-323 507,-638 742,-964 156,-219 284,-451 441,-670 35,-49 135,-56 205,-80 28,76 94,170 69,226 -45,111 -149,198 -219,298 -73,104 -153,208 -198,326 -52,128 -42,278 -101,402 -205,430 -430,850 -642,1277 -232,465 -451,937 -687,1402 -368,725 -746,1447 -1117,2172 -163,323 -312,656 -482,971 -170,316 -368,621 -545,937 -24,42 21,121 31,184 0,0 0,21 -28,31 -215,111 -291,264 -253,475 0,0 -3,-7 -21,-7 -288,212 -378,513 -430,836 0,0 3,0 -10,-3 -31,3 -45,10 -62,17 21,7 42,14 62,21 -17,42 -38,83 -83,142 -80,83 -128,149 -194,225 -14,56 -17,104 -17,153 -42,90 -87,177 -153,281 -42,17 -56,17 -76,10 -7,-10 -10,-10 -17,-14 7,7 10,14 17,42 0,42 3,66 7,90 0,0 -3,0 -21,-3 -59,49 -97,101 -139,170 -17,80 -28,142 -42,201 -17,38 -35,73 -76,125 -45,28 -66,45 -104,66 -90,139 -163,274 -236,427 3,45 10,69 14,97 0,0 -3,-3 -14,-3 -14,3 -24,7 -24,10 7,10 10,21 17,31l10 -3z"/>
  <path class="fil1" d="M8024 30493c4305,-8375 8992,-16503 14213,-24319 31,10 62,24 94,35 -10,66 -3,139 -28,198 -395,867 -763,1748 -1204,2591 -1582,3036 -3150,6075 -4798,9075 -1450,2640 -2949,5252 -4506,7830 -1683,2782 -3455,5506 -5193,8253 -184,288 -406,548 -611,822 -28,-10 -52,-24 -80,-35 17,-90 17,-187 56,-267 680,-1391 1367,-2779 2061,-4184l-3 0z"/>
  <path class="fil0" d="M18941 19940c0,0 -3,21 -28,31 -212,357 -399,704 -583,1051 0,0 -3,21 -28,28 -226,125 -305,302 -284,527 0,0 -7,24 -31,38 -38,52 -52,90 -66,128 0,0 0,17 -24,28 -284,430 -555,846 -801,1273 -108,180 -170,389 -257,583 0,0 -7,24 -31,35 -59,49 -101,80 -128,118 -149,243 -298,489 -434,739 -135,246 -253,500 -378,753 0,0 -3,21 -24,35 -118,139 -232,253 -305,392 -173,312 -330,635 -489,954 0,0 -3,24 -31,35 -73,42 -135,62 -163,108 -392,624 -784,1252 -1162,1884 -111,187 -191,392 -284,590 0,0 -3,21 -28,35 -111,163 -201,312 -288,465 0,0 0,3 -17,7 -354,465 -687,923 -1013,1388 -38,52 -17,142 -21,219 0,0 -17,-3 -28,0 -52,87 -97,170 -139,253 0,0 -7,21 -31,35 -246,305 -468,604 -694,899 -38,49 -104,80 -156,118 -3,-69 -14,-139 -7,-205 3,-28 45,-52 56,-83 104,-278 208,-559 309,-840 0,0 0,-21 24,-31 97,-121 180,-226 239,-340 215,-427 427,-857 628,-1291 76,-163 118,-340 173,-510 0,0 0,-14 24,-17 87,-160 153,-316 215,-472 0,0 3,-24 31,-38 56,-31 97,-42 111,-69 284,-531 572,-1065 846,-1603 215,-420 420,-846 624,-1270 31,-66 31,-142 49,-215 0,0 3,-17 28,-21 316,-128 229,-465 402,-656 -14,-10 -28,-17 -42,-28 17,-42 35,-83 87,-135 118,-149 302,-239 239,-448 3,-17 7,-35 35,-62 97,-104 187,-191 243,-291 316,-555 621,-1114 937,-1669 385,-676 781,-1346 1166,-2026 52,-90 52,-208 80,-312 3,-17 10,-31 42,-62 94,-83 177,-142 226,-226 173,-302 323,-614 500,-912 305,-517 624,-1027 937,-1544 222,-368 448,-732 659,-1107 59,-104 73,-232 108,-350 0,0 3,-17 28,-24 281,-382 548,-753 791,-1134 97,-153 149,-337 219,-507 0,0 0,-3 17,-3 163,-184 323,-361 451,-555 73,-111 94,-253 139,-382 0,0 3,-21 28,-31 42,-49 56,-87 73,-128 0,0 3,-17 28,-28 160,-236 298,-465 434,-690 0,0 3,-17 28,-28 108,-149 191,-288 278,-427 0,0 7,10 24,7 38,-59 59,-114 80,-170 31,-52 66,-108 125,-173 83,-62 149,-108 191,-167 187,-274 361,-555 548,-826 108,-160 232,-309 350,-461 31,17 66,31 97,49 -42,135 -87,271 -128,406 -31,101 -56,201 -83,302 0,0 0,14 -24,24 -94,180 -167,354 -236,531 -7,21 -14,42 -45,76 -56,87 -83,156 -111,226 0,0 -3,21 -24,31 -83,80 -167,135 -201,215 -219,468 -416,947 -645,1412 -246,507 -513,1003 -777,1499 -173,326 -368,642 -531,971 -111,225 -184,468 -274,704 -3,17 -7,38 -38,69 -69,52 -128,83 -153,135 -330,614 -656,1228 -982,1842 -45,83 -104,156 -142,243 -35,83 -49,173 -73,260 0,0 -3,-7 -21,-3 -87,149 -156,291 -226,437 -3,17 -7,35 -35,62 -76,118 -128,222 -180,326l-17 -3z"/>
  <path class="fil2" d="M15143 32131c0,10 -3,17 -28,38 -66,21 -111,31 -160,42 28,-121 52,-215 73,-312 1360,-3067 2942,-6019 4579,-8944 1773,-3164 3684,-6245 5707,-9256 205,-305 441,-593 663,-888 21,7 42,14 62,21 -14,87 -14,180 -45,257 -1023,2439 -2272,4763 -3521,7088 -1960,3646 -4111,7181 -6387,10640 -104,156 -212,309 -347,479 -45,45 -66,80 -83,111 0,0 0,3 -14,7 -21,21 -28,35 -35,52 -118,177 -239,354 -382,545 -45,52 -62,83 -80,118l-3 3z"/>
  <path class="fil3" d="M18924 31600c1003,-1998 1974,-3993 3001,-5957 1457,-2793 3126,-5460 4857,-8090 295,-448 607,-888 919,-1325 97,-135 215,-257 326,-382 28,14 52,24 80,38 -87,229 -153,472 -260,687 -1034,2047 -2050,4104 -3119,6134 -1367,2598 -2931,5079 -4534,7539 -354,541 -739,1065 -1114,1592 -73,101 -167,191 -250,284 -24,-10 -49,-21 -69,-28 52,-160 104,-316 167,-493l-3 0z"/>
  <path class="fil4" d="M28749 21907c-1096,2220 -2286,4371 -3598,6449 -711,1124 -1467,2217 -2210,3320 -101,149 -232,278 -382,448 -87,-1152 6265,-12291 7431,-13027 -316,1020 -801,1894 -1242,2810z"/>
  <path class="fil4" d="M28450 29092c-704,1138 -1356,2290 -2241,3275 -35,-17 -69,-31 -104,-49 24,-118 24,-243 73,-350 406,-881 794,-1776 1239,-2637 1016,-1960 2123,-3872 3358,-5703 219,-326 461,-635 697,-947 69,-90 167,-156 250,-232 28,10 52,24 80,35 -28,125 -31,257 -83,368 -395,860 -767,1731 -1207,2567 -656,1235 -1363,2439 -2061,3674z"/>
  <path class="fil5" d="M30868 29858c1100,-2092 2408,-4042 2893,-4239 -59,215 -83,395 -156,555 -246,552 -489,1107 -763,1648 -791,1554 -1662,3056 -2657,4489 -142,201 -295,395 -458,583 -66,76 -160,128 -243,191 -24,-17 -52,-35 -76,-49 62,-205 101,-420 194,-611 409,-853 836,-1696 1266,-2564l0 -3z"/>
  <path class="fil6" d="M35410 28974c66,-45 118,-76 170,-111 24,14 49,24 69,38 -49,180 -80,371 -153,541 -638,1485 -1429,2883 -2390,4184 -125,170 -291,312 -437,468 -28,-17 -59,-31 -87,-49 24,-118 35,-239 76,-350 361,-1006 874,-1943 1440,-2845 402,-642 864,-1242 1308,-1873l3 -3z"/>
  <path class="fil7" d="M15344 13276c-24,-52 -69,-132 -45,-173 173,-316 371,-618 545,-937 173,-319 319,-649 482,-971 371,-725 749,-1443 1117,-2172 236,-465 454,-933 687,-1402 212,-427 437,-846 642,-1277 59,-121 49,-274 101,-402 45,-118 125,-222 198,-326 69,-101 173,-187 219,-298 24,-56 -45,-149 -69,-226 -69,24 -167,31 -205,80 -156,215 -284,451 -441,670 -232,326 -482,642 -739,964 333,-555 670,-1124 1034,-1672 448,-673 912,-1336 1374,-2002 69,-101 160,-184 239,-278 24,14 49,28 73,42 -80,198 -146,402 -239,597 -479,978 -968,1950 -1454,2925 -670,1339 -1329,2685 -2009,4021 -486,951 -996,1884 -1509,2834l0 3z"/>
  <path class="fil8" d="M36249 33702c333,-486 652,-958 982,-1419 45,-66 149,-87 229,-128 7,87 45,180 21,253 -343,1027 -874,1953 -1582,2775 -56,66 -139,104 -253,128 49,-593 333,-1089 604,-1610z"/>
  <path class="fil9" d="M38674 36131c180,-250 347,-482 524,-708 35,-42 118,-45 177,-62 17,62 62,125 52,180 -94,486 -333,892 -701,1218 -38,35 -135,66 -153,49 -42,-38 -76,-121 -66,-173 42,-163 104,-323 167,-500l0 -3z"/>
  <path class="fil10" d="M1890 35086c-3,146 -24,302 -42,454 21,7 49,17 52,14 337,-479 666,-964 1006,-1443 59,-87 142,-156 236,-229 -312,513 -635,1034 -975,1540 -253,378 -527,742 -840,1089 94,-510 319,-964 565,-1426l-3 0z"/>
  <path class="fil10" d="M3174 33876c28,-108 56,-236 118,-340 291,-479 597,-954 895,-1429 427,-680 850,-1360 1284,-2036 69,-111 177,-194 284,-291 -236,420 -486,846 -749,1259 -600,947 -1211,1887 -1832,2838z"/>
  <path class="fil11" d="M20808 16565c73,-226 146,-468 257,-694 163,-330 357,-645 531,-971 264,-496 531,-992 777,-1499 226,-465 427,-944 645,-1412 38,-80 118,-135 198,-208 -205,465 -416,937 -649,1398 -545,1079 -1096,2151 -1648,3226 -28,52 -62,101 -111,160z"/>
  <path class="fil11" d="M17467 20061c-10,94 -14,212 -62,302 -382,676 -777,1350 -1166,2026 -316,555 -621,1114 -937,1669 -59,101 -146,184 -236,281 298,-569 607,-1148 926,-1717 482,-853 971,-1700 1474,-2557l0 -3z"/>
  <path class="fil7" d="M17280 7635c-104,253 -212,524 -347,777 -160,302 -337,597 -517,888 -76,125 -187,232 -264,357 -187,298 -350,614 -552,902 -156,229 -350,434 -545,652 337,-579 687,-1159 1048,-1738 382,-614 774,-1225 1176,-1842l0 3z"/>
  <path class="fil11" d="M19934 15867c-21,108 -35,236 -94,340 -212,375 -434,739 -659,1107 -312,513 -631,1023 -937,1544 -177,298 -326,611 -500,912 -49,83 -132,142 -215,215 284,-527 579,-1062 888,-1589 496,-843 1003,-1676 1516,-2526l0 -3z"/>
  <g id="_1904916047408">
   <path class="fil11" d="M23677 10875c14,-90 42,-191 73,-291 42,-135 83,-271 128,-406 -31,-17 -66,-31 -97,-49 -118,153 -243,302 -350,461 -187,274 -361,555 -548,826 -42,59 -108,104 -180,156 496,-739 1006,-1478 1523,-2217 10,-17 42,-21 146,-69 -191,586 -430,1079 -690,1585l0 0 -3 3zm205 -805c0,0 -3,-7 0,0z"/>
  </g>
  <path class="fil10" d="M9533 23586c142,-323 288,-659 461,-985 226,-427 475,-846 715,-1266 291,-513 579,-1027 874,-1537 21,-38 83,-49 146,-73 -253,489 -520,982 -798,1467 -458,798 -923,1589 -1398,2394z"/>
  <path class="fil11" d="M11330 31562c-87,271 -191,552 -295,829 -10,31 -52,52 -56,83 -7,69 3,135 7,205 52,-38 118,-69 156,-118 226,-291 448,-590 683,-892 -350,628 -774,1214 -1273,1752 167,-656 468,-1252 777,-1859z"/>
  <path class="fil10" d="M11739 16748c-83,239 -163,496 -284,729 -177,343 -389,670 -586,999 -132,222 -271,444 -402,670 -42,73 -56,160 -104,226 -56,76 -132,135 -219,201 208,-409 427,-819 659,-1225 302,-534 614,-1062 937,-1599z"/>
  <path class="fil11" d="M14296 25706c-3,59 -3,139 -35,201 -205,427 -409,850 -624,1270 -278,538 -562,1069 -846,1603 -14,28 -56,38 -104,62 354,-732 718,-1471 1093,-2206 160,-312 333,-614 513,-930l3 0z"/>
  <path class="fil10" d="M6869 28047c-69,-278 184,-420 291,-631 187,-375 409,-732 621,-1093 180,-305 368,-604 555,-905 17,-28 69,-38 125,-56 -354,638 -725,1280 -1100,1918 -153,257 -316,507 -493,767z"/>
  <path class="fil11" d="M13422 29262c76,-191 156,-399 267,-583 382,-631 770,-1259 1162,-1884 28,-45 90,-66 156,-97 -288,510 -590,1023 -902,1530 -215,347 -444,687 -683,1037l0 -3z"/>
  <path class="fil10" d="M8461 22497c-73,222 -142,465 -257,683 -239,458 -500,909 -760,1356 -76,128 -184,239 -295,361 264,-520 541,-1048 829,-1572 149,-278 312,-548 482,-829z"/>
  <path class="fil10" d="M3060 32693c-49,194 -97,402 -173,604 -52,146 -139,278 -208,420 -191,385 -378,774 -572,1155 -28,52 -94,87 -156,132 354,-767 725,-1530 1110,-2307l0 -3z"/>
  <path class="fil10" d="M5169 28571c-56,184 -118,378 -191,572 -59,146 -128,288 -201,427 -142,271 -291,538 -441,805 -128,226 -264,444 -416,673 399,-815 819,-1641 1249,-2474l0 -3z"/>
  <path class="fil11" d="M19420 19111c7,-80 21,-170 59,-253 38,-83 97,-160 142,-243 326,-614 652,-1228 982,-1842 28,-49 83,-80 146,-125 -319,631 -656,1266 -996,1901 -101,187 -208,368 -330,559l-3 3z"/>
  <path class="fil7" d="M14196 12582c-56,163 -108,347 -198,506 -288,510 -590,1016 -888,1520 -21,35 -56,59 -104,73 -24,-28 -24,-42 -28,-56 402,-676 801,-1356 1218,-2043z"/>
  <path class="fil11" d="M12395 29390c-45,160 -87,337 -160,500 -201,434 -413,864 -628,1291 -59,114 -142,219 -232,333 232,-527 482,-1058 735,-1589 83,-177 180,-347 284,-534z"/>
  <path class="fil11" d="M16853 23621c69,-187 135,-392 239,-576 250,-427 517,-843 798,-1266 -330,611 -676,1221 -1037,1842z"/>
  <path class="fil11" d="M12048 31367c-7,-66 -28,-156 7,-208 326,-465 663,-923 1013,-1388 -323,527 -666,1058 -1020,1596z"/>
  <path class="fil7" d="M15014 11243c-66,187 -146,385 -236,576 -128,274 -225,569 -538,729 239,-430 500,-864 774,-1304z"/>
  <path class="fil10" d="M10095 19614c-28,125 -52,267 -114,389 -156,298 -326,590 -496,881 -31,52 -94,83 -160,125 239,-461 496,-923 770,-1395z"/>
  <path class="fil10" d="M7101 24950c28,31 69,83 59,108 -281,479 -565,954 -871,1429 253,-510 527,-1016 812,-1537z"/>
  <path class="fil11" d="M15882 25265c111,-243 229,-496 364,-742 135,-250 288,-493 434,-739 24,-42 66,-73 118,-111 -288,527 -597,1055 -916,1592z"/>
  <path class="fil11" d="M20971 14199c-56,163 -108,347 -205,500 -243,382 -510,753 -784,1131 312,-538 642,-1079 989,-1627l0 -3z"/>
  <path class="fil10" d="M11781 19673c35,-139 66,-298 142,-430 191,-323 399,-635 621,-954 -239,454 -493,916 -763,1384z"/>
  <path class="fil10" d="M6040 29366c31,-121 62,-260 132,-378 142,-253 302,-496 461,-739 35,-49 101,-80 167,-118 -236,409 -489,819 -760,1235z"/>
  <path class="fil10" d="M8506 25328c-10,-49 -24,-114 3,-163 184,-347 375,-690 569,-1027 28,-52 104,-73 177,-111 -232,430 -482,860 -749,1301z"/>
  <path class="fil11" d="M15059 26646c146,-312 302,-635 475,-947 76,-135 187,-253 302,-382 -243,437 -500,881 -777,1329z"/>
  <path class="fil10" d="M5821 27309c28,31 69,83 59,111 -170,337 -347,673 -527,1006 -17,31 -66,45 -118,66 180,-392 378,-781 586,-1183z"/>
  <path class="fil10" d="M9276 21050c3,66 10,149 -24,212 -222,378 -458,753 -704,1127 225,-441 472,-885 729,-1339z"/>
  <path class="fil11" d="M21578 13258c-28,121 -52,264 -125,375 -128,194 -284,371 -448,555 173,-305 364,-614 572,-930z"/>
  <path class="fil7" d="M17797 6823c38,371 -205,593 -482,805 142,-264 305,-531 482,-805z"/>
  <path class="fil11" d="M18345 21015c170,-340 357,-687 562,-1034 -170,340 -357,683 -562,1034z"/>
  <path class="fil7" d="M14615 14611c38,-312 125,-614 416,-826 -121,274 -264,545 -416,826z"/>
  <path class="fil10" d="M12246 15864c-62,284 -111,600 -423,781 125,-257 267,-513 423,-781z"/>
  <path class="fil10" d="M3871 31100c31,31 76,90 62,111 -104,173 -222,340 -354,510 80,-205 180,-409 291,-621z"/>
  <path class="fil10" d="M3535 31760c-35,135 -66,288 -132,423 -76,156 -184,298 -291,454 125,-284 267,-576 423,-878z"/>
  <path class="fil11" d="M14685 25002c28,0 42,10 56,17 -173,191 -87,531 -395,652 97,-222 212,-441 340,-670z"/>
  <path class="fil11" d="M15014 31912c-7,83 -31,180 -59,302 49,-10 90,-21 149,-31 -69,114 -153,232 -236,350 -31,-17 -62,-31 -94,-49 76,-187 153,-375 239,-572z"/>
  <path class="fil10" d="M6255 26493c56,330 -250,493 -382,760 111,-246 239,-500 382,-760z"/>
  <path class="fil11" d="M22140 12384c-121,219 -257,444 -409,676 121,-222 257,-444 409,-676z"/>
  <path class="fil11" d="M18033 21571c-35,-219 45,-395 260,-510 -69,167 -160,337 -260,510z"/>
  <path class="fil10" d="M12801 17872c-28,-212 66,-378 257,-503 -69,163 -156,330 -257,503z"/>
  <path class="fil7" d="M15066 13786c-56,-205 21,-357 229,-461 -59,146 -135,302 -229,461z"/>
  <path class="fil10" d="M12555 15350c59,222 -118,333 -260,479 69,-156 156,-312 260,-479z"/>
  <path class="fil11" d="M13106 29761c73,-146 160,-295 264,-448 -73,146 -160,295 -264,448z"/>
  <path class="fil11" d="M12634 28901c-52,146 -118,302 -198,458 49,-149 118,-298 198,-458z"/>
  <path class="fil11" d="M23417 11427c56,-167 128,-340 215,-517 -56,167 -128,337 -215,517z"/>
  <path class="fil10" d="M5786 29775c0,-142 -17,-312 201,-361 -49,118 -118,236 -201,361z"/>
  <path class="fil11" d="M22445 11930c-69,132 -153,274 -253,416 69,-135 153,-271 253,-416z"/>
  <path class="fil11" d="M15011 24419c76,198 -108,288 -212,427 52,-139 125,-278 212,-427z"/>
  <path class="fil11" d="M19174 19545c56,-135 125,-281 215,-427 -56,139 -125,278 -215,427z"/>
  <path class="fil10" d="M12607 18205c-24,-128 -56,-278 156,-323 -35,104 -87,212 -156,323z"/>
  <path class="fil7" d="M13453 16551c73,-135 146,-271 239,-389 24,31 28,45 31,56 0,0 0,14 -24,28 -62,94 -101,177 -139,260 0,0 -3,-3 -14,0 -38,17 -66,31 -90,49l-3 -3z"/>
  <path class="fil11" d="M18955 19933c38,-97 87,-201 156,-309 -35,97 -90,198 -156,309z"/>
  <path class="fil10" d="M9325 23937c38,-97 90,-205 160,-312 -38,101 -90,201 -160,312z"/>
  <path class="fil10" d="M14327 15010c52,-66 101,-135 167,-205 -35,97 -83,198 -153,291 -17,-35 -17,-59 -14,-87z"/>
  <path class="fil10" d="M13575 16495c24,-76 62,-160 118,-246 -24,76 -62,160 -118,246z"/>
  <path class="fil11" d="M11885 31621c28,-76 73,-160 135,-243 -28,76 -73,156 -135,243z"/>
  <path class="fil10" d="M13113 17321c0,-52 14,-111 42,-194 42,-38 66,-52 94,-66 -38,83 -80,167 -135,260z"/>
  <path class="fil10" d="M13887 15944c-3,-52 10,-114 42,-201 45,-38 69,-52 97,-62 -42,83 -83,170 -139,264z"/>
  <path class="fil11" d="M23261 11732c14,-62 42,-132 87,-208 -14,62 -42,132 -87,208z"/>
  <path class="fil7" d="M14036 15669c-38,21 -66,35 -108,52 24,-45 66,-97 125,-146 10,28 3,56 -17,94z"/>
  <path class="fil7" d="M13259 17054c-38,21 -62,35 -101,56 24,-45 66,-97 121,-149 10,28 0,56 -21,94z"/>
  <path class="fil7" d="M13370 16849c-42,-14 -66,-35 -94,-56 35,-14 69,-28 121,-38 7,28 -3,56 -24,94l-3 0z"/>
  <path class="fil11" d="M22549 11767c-7,45 -28,101 -73,156 7,-49 31,-97 73,-156z"/>
  <path class="fil10" d="M13453 16568c24,-35 52,-49 94,-66 -7,45 -28,97 -66,153 -21,-17 -24,-45 -28,-87z"/>
  <path class="fil11" d="M17935 21737c0,-31 14,-69 45,-114 0,31 -14,69 -45,114z"/>
  <path class="fil7" d="M12811 14910c7,28 0,59 -24,90 -7,-28 3,-56 24,-90z"/>
  <path class="fil10" d="M12759 15003c0,31 -14,69 -45,108 0,-31 17,-66 45,-108z"/>
  <path class="fil7" d="M14314 15021c14,17 10,42 14,83 3,35 0,49 -21,66 -7,-45 -7,-94 7,-149z"/>
  <path class="fil10" d="M12680 15267c-17,0 -35,3 -69,3 3,-35 21,-69 49,-114 17,17 17,45 21,90 0,21 0,21 0,21z"/>
  <path class="fil10" d="M14085 15576c-14,-17 -17,-42 -21,-83 0,-17 3,-17 3,-17 17,0 31,0 59,-3 0,35 -14,69 -42,108l0 -3z"/>
  <path class="fil11" d="M21682 13102c-3,31 -21,69 -52,111 0,-31 21,-69 52,-111z"/>
  <path class="fil10" d="M12968 14636c14,3 17,17 24,49 -17,35 -38,52 -73,69 3,-35 21,-73 49,-118z"/>
  <path class="fil10" d="M13734 16207c-17,-3 -21,-17 -24,-52 17,-38 38,-52 73,-73 -3,38 -21,76 -49,121l0 3z"/>
  <path class="fil11" d="M15670 31409c3,-31 21,-62 56,-97 -3,31 -21,62 -56,97z"/>
  <path class="fil11" d="M15157 32124c7,-24 24,-59 56,-97 -3,28 -24,59 -56,97z"/>
  <path class="fil7" d="M14598 14646c-28,0 -49,-7 -69,-14 17,-7 31,-14 62,-14 14,3 14,24 7,31l0 -3z"/>
  <path class="fil7" d="M13457 16693c-14,0 -21,-10 -28,-24 0,0 10,-7 24,-10 10,0 10,24 0,31l3 3z"/>
  <path class="fil11" d="M15614 31458c0,-7 7,-21 24,-42 3,7 -7,21 -24,42z"/>
  <path class="fil7" d="M14067 15472c-7,-7 -10,-14 -17,-21 3,3 10,3 17,14 3,7 0,7 0,7z"/>
  <path class="fil7" d="M12683 15267c7,7 10,14 17,21 -3,-3 -7,-3 -17,-14 -3,-7 0,-7 -3,-7l3 0z"/>
  <path class="fil0" d="M23878 10067c-3,-3 3,3 0,0z"/>
 </g>
</svg>
