<?xml version="1.0" encoding="UTF-8"?>
<!DOCTYPE svg PUBLIC "-//W3C//DTD SVG 1.1//EN" "http://www.w3.org/Graphics/SVG/1.1/DTD/svg11.dtd">
<!-- Creator: CorelDRAW 2017 -->
<svg xmlns="http://www.w3.org/2000/svg" xml:space="preserve" width="500mm" height="100mm" version="1.1" style="shape-rendering:geometricPrecision; text-rendering:geometricPrecision; image-rendering:optimizeQuality; fill-rule:evenodd; clip-rule:evenodd"
viewBox="0 0 50000 10000"
 xmlns:xlink="http://www.w3.org/1999/xlink"
 enable-background="new 0 0 1005 890">
 <defs>
  <style type="text/css">
   <![CDATA[
    .fil2 {fill:#050505}
    .fil0 {fill:#060606}
    .fil3 {fill:#070707}
    .fil4 {fill:#080808}
    .fil5 {fill:#090909}
    .fil1 {fill:#DFDFDF}
    .fil6 {fill:#F0F0F0}
    .fil7 {fill:#F1F1F1}
   ]]>
  </style>
 </defs>
 <g id="Слой_x0020_1">
  <metadata id="CorelCorpID_0Corel-Layer"/>
  <g id="_2723070790960">
   <path class="fil0" d="M1080 4182c438,-623 1003,-973 1771,-929 81,5 161,7 238,28 254,67 454,46 549,-251 44,-136 161,-189 311,-150 187,48 374,88 563,127 182,37 272,171 182,314 -265,417 -166,821 -55,1257 145,563 -90,1040 -581,1361 -392,254 -809,413 -1287,394 -295,-12 -604,300 -600,593 2,171 131,125 231,106 424,-78 844,-74 1257,76 510,187 846,563 1102,1022 69,125 35,254 -118,316 -90,37 -184,55 -272,92 -371,164 -657,168 -943,-224 -314,-424 -823,-406 -1308,-318 -157,30 -316,74 -457,143 -205,99 -380,97 -565,-69 -16,-438 -16,-872 -16,-1347 106,-242 224,-440 309,-650 32,-81 21,-208 -23,-284 -74,-136 -189,-249 -286,-371 0,-404 0,-805 0,-1229l0 0 -2 -5zm2142 1088c254,-244 304,-503 152,-770 -138,-244 -482,-371 -775,-281 -274,83 -452,330 -436,613 28,498 655,747 1058,440l0 -2z"/>
  </g>
  <path class="fil1" d="M1080 5434c97,101 212,214 286,351 44,78 55,203 23,284 -85,210 -203,408 -309,627 0,-401 0,-821 0,-1261z"/>
  <g id="_2723070789904">
   <path class="fil2" d="M26508 5471c-406,-1215 719,-2327 1852,-2214 203,21 399,155 588,254 228,122 284,101 286,-155 2,-690 7,-1381 -2,-2071 -5,-233 81,-318 309,-304 224,14 450,12 673,2 203,-9 274,88 272,274 -2,120 0,240 0,362 0,1566 0,3129 0,4695 0,348 -2,364 -341,351 -270,-12 -544,-46 -803,-120 -208,-60 -385,-60 -581,14 -1153,434 -1962,-311 -2253,-1084l0 0 0 -5zm1693 -1167c-291,113 -487,309 -510,632 -21,291 120,512 371,648 332,178 664,159 969,-65 360,-263 374,-763 35,-1058 -244,-212 -523,-254 -867,-157l2 0z"/>
  </g>
  <g id="_2723070790832">
   <path class="fil2" d="M7322 5865c-378,-706 -304,-1499 180,-2032 505,-556 1278,-715 2004,-397 187,83 334,81 512,-35 284,-184 611,-182 929,-113 62,14 148,129 150,201 12,978 9,1958 14,2936 0,173 -88,238 -256,242 -339,9 -669,23 -966,-198 -65,-48 -219,-28 -309,14 -867,385 -1695,168 -2258,-616l0 0 0 -2zm1785 -168c95,-14 191,-18 284,-44 334,-92 558,-360 563,-662 5,-314 -217,-620 -558,-687 -201,-39 -431,-21 -625,44 -307,99 -464,371 -447,664 14,284 238,551 535,639 69,21 141,30 251,48l-2 -2z"/>
  </g>
  <path class="fil0" d="M46750 4212c88,155 161,297 251,431 46,69 118,161 180,161 55,2 134,-97 168,-168 194,-387 387,-775 563,-1171 71,-161 171,-212 334,-205 217,9 434,2 650,2 327,0 367,55 228,346 -399,839 -800,1679 -1201,2518 -346,724 -696,1444 -1033,2170 -76,161 -171,231 -348,221 -240,-12 -482,0 -722,-2 -254,-2 -295,-71 -182,-311 270,-572 537,-1146 819,-1713 88,-178 88,-316 -14,-491 -466,-786 -920,-1580 -1374,-2371 -168,-293 -134,-351 212,-355 240,-2 484,-18 722,7 108,12 242,83 302,171 164,235 295,496 450,761l-5 0z"/>
  <path class="fil3" d="M25886 4836c-5,528 -14,1033 -12,1538 2,217 -85,304 -302,293 -201,-12 -401,-12 -602,0 -238,16 -307,-99 -304,-316 7,-482 -2,-962 -7,-1444 -5,-438 -129,-634 -406,-653 -380,-23 -743,263 -763,648 -25,457 -12,913 -14,1372 -2,376 -14,390 -394,392 -191,0 -385,-5 -577,0 -173,5 -256,-85 -256,-247 -2,-978 -2,-1958 -2,-2936 0,-136 67,-203 201,-219 334,-37 662,-14 950,173 173,111 316,99 489,0 872,-505 1829,-35 1965,966 18,134 21,272 32,431l2 0z"/>
  <path class="fil0" d="M31139 4371c9,-295 21,-567 23,-839 0,-175 85,-249 251,-249 240,2 482,9 722,5 194,-5 249,92 242,270 -16,417 -35,832 -25,1250 5,189 58,381 118,560 78,231 265,334 505,334 247,0 424,-125 491,-353 67,-228 115,-468 122,-706 12,-353 -16,-706 -37,-1056 -12,-198 55,-304 270,-297 233,7 466,2 699,0 157,-2 249,67 249,226 0,577 37,1158 -21,1730 -101,1005 -749,1501 -1819,1446 -247,-12 -500,-35 -736,-104 -618,-182 -915,-648 -999,-1257 -42,-309 -37,-623 -53,-957l-2 -2z"/>
  <path class="fil3" d="M17593 4901c364,205 544,503 487,904 -58,404 -302,671 -699,770 -736,184 -1464,125 -2181,-101 -51,-16 -115,-46 -138,-88 -148,-279 111,-457 187,-680 48,-145 175,-161 318,-118 231,69 464,127 696,187 30,9 62,18 95,16 152,-5 367,78 420,-122 62,-231 -189,-214 -316,-277 -281,-136 -574,-244 -858,-376 -339,-159 -514,-427 -489,-807 25,-394 249,-664 602,-798 715,-270 1432,-231 2133,67 48,21 129,78 125,99 -55,208 -101,427 -203,611 -39,71 -219,101 -327,92 -277,-25 -549,-95 -826,-122 -71,-7 -150,78 -226,122 60,71 106,175 182,208 330,145 669,270 1017,410l2 2z"/>
  <path class="fil3" d="M13322 5496c-348,-148 -690,-267 -1012,-427 -593,-291 -775,-876 -390,-1335 157,-187 422,-321 662,-394 618,-189 1234,-118 1836,115 203,78 251,203 152,394 -37,71 -67,145 -104,217 -131,263 -208,277 -498,201 -244,-65 -503,-88 -754,-108 -65,-5 -136,74 -205,115 48,69 83,173 150,203 309,131 634,228 939,367 452,205 662,572 595,989 -65,408 -422,710 -890,786 -636,106 -1259,62 -1879,-111 -307,-85 -357,-191 -221,-484 263,-567 212,-503 782,-346 238,65 487,101 731,108 194,5 228,-104 108,-291z"/>
  <path class="fil3" d="M36657 4223c-67,178 42,231 161,274 279,99 563,184 835,300 374,159 662,401 673,849 12,404 -184,703 -542,858 -221,97 -477,134 -722,155 -530,48 -1056,-12 -1566,-178 -235,-76 -277,-164 -184,-394 224,-570 224,-565 816,-408 224,58 454,90 685,104 71,5 148,-88 221,-134 -55,-67 -97,-161 -166,-194 -334,-155 -683,-277 -1015,-436 -318,-152 -514,-406 -498,-779 18,-383 219,-657 563,-800 726,-302 1455,-258 2175,42 48,21 127,81 122,101 -58,210 -106,427 -210,611 -39,69 -219,95 -330,83 -251,-25 -500,-92 -752,-125 -81,-12 -168,32 -263,69l-5 2z"/>
  <path class="fil2" d="M39337 1965c307,-16 593,-25 881,-28 175,0 235,111 235,268 0,265 12,530 -2,793 -14,238 90,323 314,300 136,-14 272,-21 406,-37 161,-18 247,51 249,212 5,191 2,385 2,577 -2,208 -111,291 -311,256 -111,-18 -219,-46 -330,-67 -251,-46 -325,9 -327,265 -5,586 0,1171 0,1757 0,364 -37,401 -394,401 -152,0 -304,0 -457,0 -348,-2 -380,-32 -380,-392 -2,-547 -2,-1091 -2,-1637 0,-291 -55,-364 -337,-378 -198,-9 -274,-95 -263,-284 5,-81 0,-161 0,-240 0,-390 0,-394 394,-445 148,-18 208,-99 205,-242 -2,-256 -9,-514 5,-770 5,-104 60,-203 111,-316l2 7z"/>
  <path class="fil3" d="M6513 1751c0,1540 0,3055 0,4571 0,325 -12,334 -341,337 -217,2 -434,-7 -650,2 -171,7 -254,-58 -254,-235 2,-1732 2,-3466 2,-5198 0,-161 58,-254 242,-247 249,9 498,9 745,0 189,-7 258,85 256,263 -2,161 0,321 -2,505l2 2z"/>
  <path class="fil4" d="M44484 4004c-201,392 -258,424 -664,387 -334,-30 -549,67 -616,397 -88,417 -129,853 -125,1282 5,664 99,590 -570,586 -743,-5 -641,122 -646,-646 -5,-777 -2,-1557 0,-2334 0,-346 9,-355 355,-404 297,-44 579,-2 809,208 122,111 219,85 362,23 258,-113 535,-217 812,-254 383,-51 535,205 376,565 -25,58 -55,115 -92,189l-2 0z"/>
  <path class="fil2" d="M21167 3282c392,5 394,5 394,376 0,897 0,1794 0,2691 0,304 -12,314 -309,314 -224,0 -450,-5 -673,2 -178,7 -238,-71 -238,-244 5,-962 5,-1923 0,-2883 0,-182 55,-268 249,-256 184,9 369,2 577,2l0 -2z"/>
  <path class="fil5" d="M21377 1587c244,189 355,415 268,706 -88,284 -302,429 -583,466 -304,42 -553,-67 -724,-327 -145,-224 -129,-498 28,-699 187,-238 500,-337 800,-247 69,21 131,60 210,101l2 0z"/>
  <path class="fil6" d="M3208 5282c-390,297 -1017,46 -1045,-452 -16,-284 161,-533 436,-613 293,-88 636,37 775,281 152,270 101,526 -166,782l0 2z"/>
  <path class="fil6" d="M28219 4299c323,-90 604,-48 849,164 339,295 325,796 -35,1058 -304,224 -639,242 -969,65 -251,-136 -392,-357 -371,-648 21,-323 217,-519 528,-636l-2 -2z"/>
  <path class="fil7" d="M9088 5697c-90,-16 -161,-25 -231,-46 -297,-88 -521,-355 -535,-639 -16,-291 141,-563 447,-664 194,-62 424,-81 625,-44 344,67 565,374 558,687 -5,302 -228,570 -563,662 -92,25 -189,30 -302,42l0 2z"/>
 </g>
</svg>
